<svg xmlns="http://www.w3.org/2000/svg" xmlns:xlink="http://www.w3.org/1999/xlink" width="600" zoomAndPan="magnify" viewBox="0 0 450 449.999984" height="600" preserveAspectRatio="xMidYMid meet" version="1.0"><defs><g/></defs><g fill="#ffffff" fill-opacity="0.4"><g transform="translate(80.898861, 193.248071)"><g><path d="M 36.640625 -75.640625 L 36.640625 0 L 8.859375 0 L 8.859375 -121.890625 L 36.640625 -121.890625 L 85.109375 -46.25 L 85.40625 -46.25 L 85.40625 -121.890625 L 113.171875 -121.890625 L 113.171875 0 L 85.40625 0 L 36.9375 -75.640625 Z M 36.640625 -75.640625 "/></g></g></g><g fill="#ffffff" fill-opacity="0.4"><g transform="translate(277.838736, 193.248071)"><g><path d="M 78.609375 -121.890625 L 78.609375 -97.515625 L 36.640625 -97.515625 L 36.640625 -73.28125 L 76.828125 -73.28125 L 76.828125 -48.90625 L 36.640625 -48.90625 L 36.640625 -24.375 L 78.609375 -24.375 L 78.609375 0 L 8.859375 0 L 8.859375 -121.890625 Z M 78.609375 -121.890625 "/></g></g></g><g fill="#000000" fill-opacity="1"><g transform="translate(74.36927, 186.718483)"><g><path d="M 36.640625 -75.640625 L 36.640625 0 L 8.859375 0 L 8.859375 -121.890625 L 36.640625 -121.890625 L 85.109375 -46.25 L 85.40625 -46.25 L 85.40625 -121.890625 L 113.171875 -121.890625 L 113.171875 0 L 85.40625 0 L 36.9375 -75.640625 Z M 36.640625 -75.640625 "/></g></g></g><g fill="#000000" fill-opacity="1"><g transform="translate(271.309145, 186.718483)"><g><path d="M 78.609375 -121.890625 L 78.609375 -97.515625 L 36.640625 -97.515625 L 36.640625 -73.28125 L 76.828125 -73.28125 L 76.828125 -48.90625 L 36.640625 -48.90625 L 36.640625 -24.375 L 78.609375 -24.375 L 78.609375 0 L 8.859375 0 L 8.859375 -121.890625 Z M 78.609375 -121.890625 "/></g></g></g><g fill="#ffffff" fill-opacity="0.4"><g transform="translate(80.898861, 377.748057)"><g><path d="M 102.53125 -121.890625 L 102.53125 -43.296875 C 102.53125 -28.316406 98.492188 -16.984375 90.421875 -9.296875 C 82.347656 -1.617188 70.53125 2.21875 54.96875 2.21875 C 39.40625 2.21875 27.582031 -1.617188 19.5 -9.296875 C 11.425781 -16.984375 7.390625 -28.316406 7.390625 -43.296875 L 7.390625 -121.890625 L 35.171875 -121.890625 L 35.171875 -51.421875 C 35.171875 -41.566406 36.71875 -34.71875 39.8125 -30.875 C 42.914062 -27.039062 47.960938 -25.125 54.953125 -25.125 C 61.953125 -25.125 67.003906 -27.039062 70.109375 -30.875 C 73.210938 -34.71875 74.765625 -41.566406 74.765625 -51.421875 L 74.765625 -121.890625 Z M 102.53125 -121.890625 "/></g></g></g><g fill="#000000" fill-opacity="1"><g transform="translate(74.36927, 371.218469)"><g><path d="M 102.53125 -121.890625 L 102.53125 -43.296875 C 102.53125 -28.316406 98.492188 -16.984375 90.421875 -9.296875 C 82.347656 -1.617188 70.53125 2.21875 54.96875 2.21875 C 39.40625 2.21875 27.582031 -1.617188 19.5 -9.296875 C 11.425781 -16.984375 7.390625 -28.316406 7.390625 -43.296875 L 7.390625 -121.890625 L 35.171875 -121.890625 L 35.171875 -51.421875 C 35.171875 -41.566406 36.71875 -34.71875 39.8125 -30.875 C 42.914062 -27.039062 47.960938 -25.125 54.953125 -25.125 C 61.953125 -25.125 67.003906 -27.039062 70.109375 -30.875 C 73.210938 -34.71875 74.765625 -41.566406 74.765625 -51.421875 L 74.765625 -121.890625 Z M 102.53125 -121.890625 "/></g></g></g><path stroke-linecap="butt" transform="matrix(0.000000000000000046, -0.75, 0.75, 0.000000000000000046, 236.409892, 362.773565)" fill="none" stroke-linejoin="miter" d="M 30.000173 4.000352 L 370.010616 4.000352 " stroke="#000000" stroke-width="8" stroke-opacity="1" stroke-miterlimit="4"/><path stroke-linecap="butt" transform="matrix(0.000000000000000367, -6, 6, 0.000000000000000367, 239.409892, 362.773565)" fill-opacity="1" fill="#000000" fill-rule="nonzero" stroke-linejoin="round" d="M 0.500021 -1.499956 L 3.500022 -1.499956 L 3.500022 1.500044 L 0.500021 1.500044 Z M 0.500021 -1.499956 " stroke="#000000" stroke-width="1" stroke-opacity="1" stroke-miterlimit="4"/><path stroke-linecap="butt" transform="matrix(0.000000000000000367, -6, 6, 0.000000000000000367, 239.409892, 62.766631)" fill-opacity="1" fill="#000000" fill-rule="nonzero" stroke-linejoin="round" d="M -3.499833 -1.499956 L -0.499832 -1.499956 L -0.499832 1.500044 L -3.499833 1.500044 Z M -3.499833 -1.499956 " stroke="#000000" stroke-width="1" stroke-opacity="1" stroke-miterlimit="4"/></svg>