<svg xmlns="http://www.w3.org/2000/svg" xmlns:xlink="http://www.w3.org/1999/xlink" width="600" zoomAndPan="magnify" viewBox="0 0 450 449.999984" height="600" preserveAspectRatio="xMidYMid meet" version="1.0"><defs><g/><clipPath id="43c7cee745"><path d="M 321.410156 66 L 412.910156 66 L 412.910156 230 L 321.410156 230 Z M 321.410156 66 " clip-rule="nonzero"/></clipPath><clipPath id="a26a903f34"><path d="M 321.410156 66 L 412.910156 66 L 412.910156 230 L 321.410156 230 Z M 321.410156 66 " clip-rule="nonzero"/></clipPath></defs><g clip-path="url(#43c7cee745)"><path fill="#000000" d="M 412.429688 94.734375 C 412.09375 95.511719 411.558594 96.183594 410.980469 96.703125 C 410.203125 97.402344 409.355469 97.859375 408.519531 98.234375 C 408.101562 98.414062 407.683594 98.570312 407.265625 98.710938 L 406.636719 98.90625 L 405.984375 99.085938 C 405.882812 99.109375 405.773438 99.121094 405.667969 99.125 L 405.664062 99.128906 L 401.160156 99.636719 L 401.164062 99.636719 C 400.351562 99.738281 399.539062 99.828125 398.730469 99.917969 C 397.902344 100.003906 397.09375 100.097656 396.246094 100.167969 C 396.246094 100.167969 396.246094 100.171875 396.246094 100.171875 C 395.667969 101.78125 395.160156 103.757812 394.667969 105.914062 C 394.171875 108.082031 393.691406 110.449219 393.183594 112.980469 C 392.925781 114.246094 392.667969 115.550781 392.378906 116.898438 C 392.078125 118.269531 391.78125 119.574219 391.5 120.96875 C 390.929688 123.753906 390.363281 126.667969 389.792969 129.660156 C 390.214844 130.109375 390.636719 130.582031 391.058594 131.078125 C 391.933594 132.097656 392.789062 133.226562 393.636719 134.449219 C 394.488281 135.667969 395.308594 136.992188 396.074219 138.421875 C 397.601562 141.273438 398.984375 144.546875 399.609375 148.277344 C 399.914062 150.136719 400.019531 152.121094 399.71875 154.144531 C 399.625 154.644531 399.566406 155.15625 399.417969 155.65625 C 399.351562 155.90625 399.28125 156.160156 399.214844 156.410156 C 399.136719 156.660156 399.039062 156.90625 398.949219 157.15625 C 398.855469 157.398438 398.78125 157.660156 398.664062 157.890625 L 398.328125 158.59375 C 398.121094 159.074219 397.832031 159.519531 397.566406 159.972656 L 397.363281 160.3125 L 397.128906 160.636719 L 396.65625 161.285156 C 396.332031 161.710938 395.957031 162.101562 395.601562 162.507812 L 395.011719 163.0625 C 394.8125 163.246094 394.625 163.441406 394.40625 163.601562 C 393.976562 163.929688 393.558594 164.285156 393.09375 164.5625 C 391.28125 165.753906 389.242188 166.570312 387.167969 167.0625 C 385.085938 167.554688 382.964844 167.761719 380.859375 167.792969 C 378.75 167.820312 376.65625 167.667969 374.589844 167.402344 C 370.449219 166.871094 366.425781 165.875 362.554688 164.667969 C 361.132812 164.222656 359.726562 163.75 358.347656 163.246094 C 356.964844 166.3125 355.515625 169.644531 355.078125 170.59375 C 354.660156 171.527344 350.582031 180.679688 345.28125 192.570312 C 343.957031 195.542969 342.558594 198.6875 341.121094 201.917969 C 340.925781 202.339844 340.707031 202.804688 340.492188 203.222656 C 340.269531 203.625 340.050781 204.027344 339.832031 204.433594 C 339.378906 205.222656 338.929688 206.019531 338.460938 206.796875 C 337.53125 208.359375 336.578125 209.914062 335.617188 211.460938 C 331.914062 217.417969 328.125 223.28125 324.664062 228.582031 C 324.636719 228.675781 324.605469 228.765625 324.578125 228.863281 L 324.503906 228.828125 C 324.425781 228.949219 324.34375 229.074219 324.265625 229.195312 C 323.816406 229.882812 322.898438 230.074219 322.210938 229.625 C 321.644531 229.253906 321.417969 228.5625 321.605469 227.945312 L 321.609375 227.9375 C 321.652344 227.796875 321.695312 227.660156 321.738281 227.515625 L 321.667969 227.484375 C 321.71875 227.410156 321.769531 227.332031 321.820312 227.253906 C 323.71875 221.121094 325.472656 215.453125 327.039062 210.390625 C 327.851562 207.765625 328.613281 205.296875 329.320312 203.011719 C 329.675781 201.867188 330 200.777344 330.390625 199.671875 C 330.769531 198.605469 331.136719 197.613281 331.492188 196.671875 C 334.359375 189.144531 336.15625 184.742188 336.277344 184.394531 L 338.90625 177.722656 C 339.425781 176.378906 344.035156 164.699219 345.855469 160.21875 C 346.144531 159.503906 346.4375 158.789062 346.742188 158.082031 C 341.675781 155.335938 337.226562 152.242188 333.539062 149.132812 C 331.148438 147.105469 329.082031 145.0625 327.398438 143.066406 C 325.710938 141.078125 324.414062 139.132812 323.523438 137.367188 C 322.625 135.601562 322.148438 134.023438 321.933594 132.863281 C 321.726562 131.699219 321.71875 130.976562 321.71875 130.824219 C 321.667969 129.1875 322.015625 127.480469 322.769531 125.992188 C 323.136719 125.25 323.601562 124.539062 324.097656 123.929688 L 324.835938 123.042969 L 325.625 122.207031 C 325.949219 121.882812 326.902344 120.921875 328.378906 119.828125 C 329.847656 118.726562 331.835938 117.503906 334.039062 116.492188 C 336.234375 115.453125 338.632812 114.605469 340.835938 113.960938 C 343.042969 113.324219 345.054688 112.878906 346.503906 112.609375 C 347.8125 112.363281 349.128906 112.167969 350.453125 112.027344 C 351.433594 110.566406 352.480469 109.121094 353.628906 107.726562 C 353.722656 107.605469 353.90625 107.363281 354.164062 107.03125 C 354.414062 106.65625 354.746094 106.210938 355.109375 105.640625 C 355.847656 104.519531 356.742188 103.019531 357.671875 101.421875 C 359.527344 98.222656 361.488281 94.589844 362.574219 92.570312 C 363.152344 91.503906 363.730469 90.4375 364.332031 89.386719 C 364.375 89.308594 364.425781 89.234375 364.476562 89.160156 C 364.1875 88.960938 363.902344 88.761719 363.617188 88.558594 C 362.628906 87.863281 361.636719 87.160156 360.679688 86.398438 C 360.609375 86.332031 359.933594 85.78125 358.867188 84.75 C 358.605469 84.480469 358.320312 84.1875 358.007812 83.867188 C 357.707031 83.53125 357.382812 83.167969 357.050781 82.765625 C 356.726562 82.351562 356.375 81.921875 356.050781 81.414062 C 355.703125 80.925781 355.378906 80.367188 355.078125 79.746094 C 354.78125 79.125 354.515625 78.421875 354.355469 77.628906 C 354.199219 76.835938 354.160156 75.929688 354.359375 75.015625 C 354.457031 74.558594 354.617188 74.105469 354.824219 73.683594 C 354.875 73.582031 354.933594 73.460938 354.984375 73.378906 L 355.136719 73.121094 C 355.246094 72.949219 355.339844 72.773438 355.457031 72.605469 C 355.90625 71.925781 356.441406 71.285156 357.03125 70.683594 C 358.230469 69.5 359.695312 68.550781 361.253906 67.875 C 362.816406 67.195312 364.464844 66.769531 366.109375 66.5 C 369.414062 65.988281 372.707031 66.113281 375.746094 66.484375 C 378.785156 66.867188 381.582031 67.511719 383.976562 68.195312 C 388.765625 69.570312 391.949219 71.0625 392.425781 71.253906 C 392.613281 71.335938 393.28125 71.566406 393.976562 71.847656 C 394.671875 72.128906 395.398438 72.472656 395.710938 72.730469 C 395.96875 72.949219 396.296875 73.109375 396.613281 73.238281 C 397.699219 73.691406 398.707031 74.292969 399.679688 74.964844 C 401.011719 75.890625 402.394531 76.769531 403.664062 77.816406 C 404.570312 78.5625 405.4375 79.363281 406.253906 80.226562 C 407.070312 81.082031 407.84375 82.03125 408.507812 83.023438 C 409.429688 84.398438 410.300781 85.8125 411.109375 87.316406 C 411.503906 88.050781 411.902344 88.800781 412.226562 89.621094 C 412.550781 90.441406 412.828125 91.335938 412.871094 92.347656 C 412.902344 93.113281 412.777344 93.957031 412.429688 94.734375 Z M 412.429688 94.734375 " fill-opacity="1" fill-rule="nonzero"/></g><path fill="#161311" d="M 340.699219 195.753906 C 340.066406 197.160156 339.328125 198.792969 338.523438 200.582031 C 338.417969 200.816406 338.320312 201.015625 338.222656 201.214844 C 338.121094 201.417969 338.027344 201.617188 337.917969 201.828125 C 337.675781 202.261719 337.433594 202.703125 337.1875 203.152344 C 336.660156 204.050781 336.121094 204.976562 335.542969 205.917969 C 333.257812 209.6875 330.664062 213.71875 328.226562 217.492188 C 328.167969 217.582031 328.113281 217.667969 328.054688 217.753906 C 329.742188 212.367188 330.5625 209.753906 330.617188 209.582031 C 331.011719 208.199219 331.382812 206.808594 331.800781 205.429688 C 332.339844 203.679688 332.890625 201.867188 333.480469 200.234375 C 333.632812 199.820312 333.691406 199.355469 333.882812 198.964844 C 334.273438 198.15625 334.515625 197.304688 334.78125 196.449219 C 335.132812 195.324219 335.464844 194.140625 336.027344 193.132812 C 336.515625 192.253906 336.820312 191.335938 337.175781 190.433594 C 337.710938 189.058594 338.105469 187.628906 338.644531 186.257812 C 339.378906 184.378906 340.238281 182.550781 340.894531 180.636719 C 341.28125 179.511719 341.714844 178.394531 342.15625 177.289062 C 342.867188 175.527344 343.621094 173.785156 344.324219 172.023438 L 347.667969 163.503906 C 348.210938 162.140625 348.773438 160.78125 349.328125 159.421875 C 350.023438 159.769531 350.726562 160.109375 351.441406 160.4375 C 352.871094 161.089844 354.324219 161.691406 355.800781 162.273438 C 355.636719 162.695312 355.46875 163.117188 355.292969 163.53125 C 354.523438 165.355469 353.664062 167.144531 352.828125 168.9375 L 349.308594 176.441406 C 348.492188 178.199219 347.761719 179.996094 346.898438 181.726562 C 346.269531 182.988281 345.6875 184.253906 345.21875 185.574219 C 345.082031 185.960938 344.910156 186.359375 344.683594 186.691406 C 344.132812 187.488281 343.191406 190.210938 342.988281 190.660156 C 342.816406 191.046875 341.964844 192.941406 340.699219 195.753906 Z M 388.089844 138.761719 L 388.078125 138.816406 C 388.015625 139.144531 387.839844 139.425781 387.59375 139.617188 C 387.269531 139.871094 387.148438 139.921875 386.945312 140.039062 C 386.757812 140.144531 386.589844 140.21875 386.40625 140.308594 C 386.058594 140.453125 385.707031 140.597656 385.363281 140.699219 C 385.015625 140.820312 384.671875 140.902344 384.328125 140.988281 C 383.984375 141.085938 383.640625 141.136719 383.300781 141.203125 C 381.929688 141.441406 380.566406 141.574219 379.21875 141.59375 C 376.515625 141.667969 373.863281 141.449219 371.277344 141.121094 C 370.632812 141.035156 369.992188 140.945312 369.351562 140.859375 C 368.71875 140.75 368.089844 140.640625 367.464844 140.535156 C 367.148438 140.480469 366.835938 140.425781 366.527344 140.375 C 366.207031 140.304688 365.890625 140.238281 365.574219 140.171875 C 364.9375 140.050781 364.320312 139.863281 363.703125 139.707031 C 361.25 138.996094 358.960938 138.007812 356.941406 136.820312 C 355.925781 136.230469 354.984375 135.582031 354.101562 134.925781 C 353.230469 134.25 352.40625 133.578125 351.671875 132.871094 C 350.183594 131.476562 348.972656 130.050781 347.996094 128.730469 C 347.015625 127.410156 346.265625 126.1875 345.703125 125.15625 C 345.425781 124.636719 345.1875 124.171875 344.992188 123.753906 C 344.894531 123.546875 344.808594 123.355469 344.730469 123.171875 C 344.648438 122.988281 344.589844 122.835938 344.515625 122.644531 C 344.347656 122.210938 344.402344 121.746094 344.617188 121.375 L 344.628906 121.359375 C 346.449219 118.253906 347.625 116.398438 348.351562 115.25 C 347.011719 115.472656 345.675781 115.730469 344.355469 116.050781 C 340.910156 116.882812 337.542969 118.03125 334.421875 119.585938 C 333.441406 120.058594 332.507812 120.597656 331.582031 121.148438 C 330.679688 121.726562 329.78125 122.320312 328.976562 123.015625 C 327.953125 123.875 327.019531 124.832031 326.253906 125.898438 C 325.960938 126.328125 325.691406 126.761719 325.457031 127.210938 C 325.234375 127.664062 325.046875 128.128906 324.90625 128.609375 C 324.628906 129.574219 324.535156 130.605469 324.667969 131.648438 C 324.855469 133.183594 325.550781 134.648438 326.292969 136.085938 C 326.777344 137.039062 327.398438 137.921875 327.929688 138.925781 C 328.542969 140.082031 329.539062 141.09375 330.492188 142.054688 C 331.21875 142.785156 331.984375 143.449219 332.667969 144.246094 C 333 144.628906 333.460938 144.914062 333.84375 145.265625 C 335.414062 146.699219 337.050781 148.082031 338.777344 149.355469 C 340.125 150.34375 341.527344 151.257812 342.949219 152.136719 C 343.054688 152.199219 344.050781 152.863281 345.769531 153.890625 C 347.488281 154.914062 349.941406 156.292969 352.980469 157.6875 C 356.023438 159.058594 359.683594 160.527344 363.664062 161.78125 C 367.652344 163.03125 371.992188 164.097656 376.382812 164.558594 C 378.574219 164.785156 380.777344 164.871094 382.90625 164.695312 C 385.03125 164.523438 387.09375 164.121094 388.929688 163.402344 C 390.757812 162.664062 392.367188 161.640625 393.589844 160.347656 C 394.808594 159.066406 395.6875 157.542969 396.242188 156.066406 C 396.789062 154.601562 396.980469 153.113281 396.992188 151.761719 C 397 150.410156 396.867188 149.191406 396.65625 148.164062 C 396.46875 147.136719 396.234375 146.300781 396.046875 145.679688 C 395.875 145.058594 395.707031 144.65625 395.65625 144.492188 C 395.570312 144.222656 395.179688 143.351562 394.734375 142.433594 C 394.507812 141.972656 394.277344 141.5 394.070312 141.082031 C 393.863281 140.660156 393.703125 140.285156 393.605469 140.027344 C 393.453125 139.601562 393.222656 139.160156 392.949219 138.777344 C 392.050781 137.445312 391.191406 136.109375 390.269531 134.785156 C 389.90625 134.261719 389.515625 133.753906 389.113281 133.261719 C 388.773438 135.074219 388.429688 136.910156 388.089844 138.761719 Z M 391.597656 106.339844 C 391.78125 105 392.105469 103.695312 392.511719 102.382812 C 392.742188 101.664062 392.949219 100.941406 393.1875 100.210938 C 392.445312 100.164062 391.710938 100.085938 390.980469 99.992188 C 389.382812 99.769531 387.832031 99.382812 386.300781 98.972656 C 385.339844 98.714844 384.375 98.457031 383.414062 98.203125 C 381.777344 97.78125 380.234375 97.101562 378.679688 96.480469 C 378.113281 96.253906 377.53125 96.050781 376.949219 95.851562 C 376.375 95.636719 375.796875 95.433594 375.238281 95.175781 C 374.503906 94.835938 373.75 94.542969 373.070312 94.042969 C 372.679688 93.765625 372.25 93.527344 371.800781 93.316406 C 371.347656 93.113281 370.890625 92.910156 370.441406 92.707031 C 369.757812 92.402344 369.078125 92.105469 368.46875 91.648438 C 368.175781 91.425781 367.796875 91.316406 367.472656 91.125 C 367.15625 90.929688 366.84375 90.734375 366.53125 90.535156 C 366.523438 90.964844 366.453125 91.386719 366.277344 91.773438 C 366.210938 91.914062 366.128906 92.050781 366.054688 92.191406 L 366.085938 92.207031 L 364.0625 95.945312 C 362.683594 98.515625 361.300781 101.085938 359.8125 103.613281 C 358.886719 105.1875 357.882812 106.714844 356.804688 108.253906 C 356.484375 108.734375 356.085938 109.226562 355.714844 109.714844 C 355.378906 110.140625 355.050781 110.5625 354.746094 111.023438 C 353.699219 112.566406 352.542969 114.078125 351.511719 115.675781 C 350.757812 116.847656 350.152344 118.113281 349.421875 119.304688 C 348.941406 120.085938 348.519531 120.898438 347.914062 121.636719 C 347.765625 121.816406 347.628906 122.007812 347.5 122.203125 C 347.539062 122.277344 347.574219 122.351562 347.617188 122.425781 C 347.761719 122.691406 347.921875 122.957031 348.074219 123.214844 C 348.492188 123.910156 348.964844 124.550781 349.324219 125.292969 C 349.496094 125.648438 349.816406 125.9375 350.050781 126.265625 C 351.003906 127.625 352.050781 128.929688 353.238281 130.089844 C 354.164062 130.996094 355.179688 131.800781 356.230469 132.542969 C 356.324219 132.59375 357.175781 133.285156 358.734375 134.199219 C 360.292969 135.09375 362.578125 136.199219 365.457031 136.929688 C 365.808594 137.035156 366.183594 137.097656 366.558594 137.183594 C 366.746094 137.226562 366.933594 137.269531 367.125 137.308594 C 367.324219 137.34375 367.523438 137.378906 367.726562 137.417969 C 368.535156 137.554688 369.367188 137.71875 370.21875 137.847656 C 371.925781 138.097656 373.710938 138.335938 375.527344 138.449219 C 377.34375 138.585938 379.199219 138.601562 381.003906 138.449219 C 381.460938 138.421875 381.898438 138.34375 382.34375 138.296875 C 382.566406 138.265625 382.777344 138.21875 382.996094 138.179688 C 383.210938 138.140625 383.425781 138.101562 383.632812 138.046875 C 384.050781 137.949219 384.453125 137.832031 384.828125 137.695312 C 384.984375 137.636719 385.132812 137.574219 385.269531 137.511719 C 386.523438 130.941406 387.71875 124.804688 388.703125 120.128906 C 388.835938 119.519531 388.960938 118.9375 389.082031 118.382812 C 389.207031 117.832031 389.328125 117.308594 389.4375 116.816406 C 389.65625 115.84375 389.839844 114.972656 389.992188 114.234375 C 390.296875 112.753906 390.492188 111.808594 390.546875 111.550781 C 390.636719 111.089844 390.945312 108.347656 391.316406 107.492188 C 391.464844 107.136719 391.546875 106.730469 391.597656 106.339844 Z M 408.707031 88.484375 C 407.710938 86.546875 406.390625 84.773438 406.011719 84.230469 C 405.828125 83.976562 404.933594 82.71875 403.035156 81.046875 C 401.152344 79.375 398.25 77.335938 394.527344 75.429688 C 390.8125 73.523438 386.28125 71.726562 381.292969 70.511719 C 378.804688 69.910156 376.195312 69.457031 373.550781 69.257812 C 370.914062 69.066406 368.222656 69.132812 365.679688 69.664062 C 363.148438 70.195312 360.773438 71.253906 359.128906 72.953125 C 358.71875 73.378906 358.355469 73.839844 358.035156 74.328125 C 357.953125 74.449219 357.882812 74.578125 357.808594 74.699219 L 357.695312 74.886719 C 357.660156 74.953125 357.640625 74.992188 357.613281 75.046875 C 357.515625 75.246094 357.445312 75.453125 357.398438 75.660156 C 357.214844 76.503906 357.460938 77.527344 357.96875 78.515625 C 358.472656 79.507812 359.199219 80.453125 359.976562 81.324219 C 360.761719 82.195312 361.605469 83.007812 362.484375 83.753906 C 364.222656 85.261719 366.042969 86.53125 367.761719 87.640625 C 371.21875 89.859375 374.339844 91.398438 376.582031 92.433594 C 378.835938 93.460938 380.230469 93.976562 380.394531 94.042969 C 382.175781 94.71875 383.972656 95.351562 385.796875 95.863281 C 386.339844 96.023438 389.027344 96.792969 392.039062 97.148438 C 392.789062 97.230469 393.558594 97.289062 394.304688 97.300781 C 394.675781 97.296875 395.054688 97.320312 395.40625 97.285156 C 395.585938 97.277344 395.761719 97.265625 395.9375 97.257812 C 396.109375 97.246094 396.316406 97.222656 396.5 97.207031 C 398.011719 97.066406 399.359375 96.917969 400.3125 96.800781 C 401.324219 96.671875 402.328125 96.539062 403.3125 96.398438 C 403.371094 96.390625 403.425781 96.386719 403.484375 96.382812 L 406.492188 95.992188 C 406.921875 95.882812 407.257812 95.648438 407.566406 95.378906 C 407.933594 95.070312 408.375 94.886719 408.703125 94.621094 C 408.988281 94.394531 409.199219 94.136719 409.351562 93.886719 C 409.507812 93.636719 409.613281 93.390625 409.722656 93.113281 C 409.855469 92.789062 409.953125 92.164062 409.769531 91.308594 C 409.617188 90.464844 409.199219 89.449219 408.707031 88.484375 Z M 408.707031 88.484375 " fill-opacity="1" fill-rule="nonzero"/><g clip-path="url(#a26a903f34)"><path fill="#000000" d="M 412.871094 92.347656 C 412.828125 91.335938 412.550781 90.441406 412.226562 89.621094 C 411.902344 88.800781 411.503906 88.050781 411.109375 87.316406 C 410.300781 85.8125 409.429688 84.398438 408.507812 83.023438 C 407.84375 82.03125 407.070312 81.082031 406.253906 80.226562 C 405.4375 79.363281 404.570312 78.5625 403.664062 77.816406 C 402.394531 76.769531 401.011719 75.890625 399.679688 74.964844 C 398.707031 74.292969 397.699219 73.691406 396.613281 73.238281 C 396.296875 73.109375 395.96875 72.949219 395.710938 72.730469 C 395.398438 72.472656 394.671875 72.128906 393.976562 71.847656 C 393.28125 71.566406 392.613281 71.335938 392.425781 71.253906 C 391.949219 71.0625 388.765625 69.570312 383.976562 68.195312 C 381.582031 67.511719 378.785156 66.867188 375.746094 66.484375 C 372.707031 66.113281 369.414062 65.988281 366.109375 66.5 C 364.464844 66.769531 362.816406 67.195312 361.253906 67.875 C 359.695312 68.550781 358.230469 69.5 357.03125 70.683594 C 356.441406 71.285156 355.90625 71.925781 355.457031 72.605469 C 355.339844 72.773438 355.242188 72.949219 355.136719 73.121094 L 354.984375 73.378906 C 354.933594 73.460938 354.875 73.582031 354.824219 73.683594 C 354.617188 74.105469 354.457031 74.558594 354.359375 75.015625 C 354.160156 75.929688 354.199219 76.835938 354.355469 77.628906 C 354.515625 78.421875 354.78125 79.125 355.078125 79.746094 C 355.378906 80.367188 355.703125 80.925781 356.050781 81.414062 C 356.375 81.921875 356.726562 82.351562 357.050781 82.765625 C 357.382812 83.171875 357.707031 83.53125 358.007812 83.867188 C 358.320312 84.1875 358.605469 84.480469 358.867188 84.75 C 359.933594 85.78125 360.609375 86.332031 360.679688 86.398438 C 361.636719 87.160156 362.628906 87.863281 363.617188 88.558594 C 363.902344 88.761719 364.1875 88.960938 364.476562 89.160156 C 364.425781 89.234375 364.375 89.308594 364.332031 89.386719 C 363.730469 90.4375 363.152344 91.503906 362.574219 92.570312 C 361.488281 94.589844 359.527344 98.222656 357.671875 101.421875 C 356.742188 103.019531 355.847656 104.519531 355.109375 105.640625 C 354.746094 106.210938 354.414062 106.65625 354.164062 107.03125 C 353.910156 107.363281 353.722656 107.605469 353.628906 107.726562 C 352.480469 109.121094 351.433594 110.566406 350.453125 112.027344 C 349.128906 112.167969 347.8125 112.363281 346.503906 112.609375 C 345.054688 112.878906 343.042969 113.324219 340.835938 113.960938 C 338.632812 114.605469 336.234375 115.453125 334.039062 116.492188 C 331.835938 117.503906 329.847656 118.726562 328.378906 119.828125 C 326.902344 120.921875 325.949219 121.882812 325.625 122.207031 L 324.835938 123.042969 L 324.097656 123.929688 C 323.601562 124.539062 323.136719 125.25 322.769531 125.992188 C 322.015625 127.480469 321.667969 129.1875 321.71875 130.824219 C 321.71875 130.976562 321.726562 131.699219 321.933594 132.863281 C 322.148438 134.023438 322.625 135.601562 323.523438 137.367188 C 324.414062 139.132812 325.710938 141.078125 327.398438 143.066406 C 329.082031 145.0625 331.148438 147.105469 333.539062 149.132812 C 337.226562 152.242188 341.675781 155.335938 346.742188 158.082031 C 346.4375 158.789062 346.144531 159.503906 345.855469 160.21875 C 344.035156 164.699219 339.425781 176.378906 338.90625 177.722656 L 336.277344 184.394531 C 336.15625 184.742188 334.359375 189.144531 331.492188 196.671875 C 331.136719 197.613281 330.769531 198.605469 330.390625 199.671875 C 330 200.777344 329.675781 201.867188 329.320312 203.011719 C 328.613281 205.296875 327.851562 207.765625 327.039062 210.390625 C 325.472656 215.453125 323.71875 221.121094 321.820312 227.253906 C 321.769531 227.332031 321.71875 227.410156 321.667969 227.484375 L 321.738281 227.515625 C 321.695312 227.660156 321.652344 227.796875 321.609375 227.9375 L 321.605469 227.945312 C 321.417969 228.5625 321.644531 229.253906 322.210938 229.625 C 322.898438 230.074219 323.816406 229.882812 324.265625 229.195312 C 324.34375 229.074219 324.425781 228.949219 324.503906 228.828125 L 324.578125 228.863281 C 324.605469 228.765625 324.636719 228.675781 324.664062 228.582031 C 328.125 223.28125 331.914062 217.417969 335.617188 211.460938 C 336.582031 209.914062 337.53125 208.359375 338.460938 206.796875 C 338.929688 206.019531 339.378906 205.222656 339.832031 204.433594 C 340.050781 204.027344 340.269531 203.625 340.492188 203.222656 C 340.707031 202.804688 340.925781 202.339844 341.121094 201.917969 C 342.558594 198.6875 343.957031 195.542969 345.28125 192.570312 C 350.582031 180.679688 354.664062 171.527344 355.078125 170.59375 C 355.515625 169.644531 356.964844 166.3125 358.347656 163.246094 C 359.726562 163.75 361.132812 164.222656 362.554688 164.667969 C 366.425781 165.875 370.449219 166.871094 374.589844 167.402344 C 376.65625 167.667969 378.75 167.820312 380.859375 167.792969 C 382.964844 167.761719 385.085938 167.554688 387.167969 167.0625 C 389.242188 166.566406 391.28125 165.753906 393.09375 164.5625 C 393.558594 164.285156 393.976562 163.929688 394.40625 163.601562 C 394.625 163.441406 394.8125 163.246094 395.011719 163.0625 L 395.601562 162.507812 C 395.957031 162.101562 396.332031 161.710938 396.65625 161.285156 L 397.128906 160.636719 L 397.363281 160.3125 L 397.566406 159.972656 C 397.832031 159.519531 398.121094 159.074219 398.328125 158.59375 L 398.664062 157.890625 C 398.78125 157.660156 398.855469 157.398438 398.949219 157.15625 C 399.039062 156.90625 399.136719 156.660156 399.214844 156.410156 C 399.28125 156.160156 399.351562 155.90625 399.417969 155.65625 C 399.566406 155.15625 399.625 154.648438 399.71875 154.144531 C 400.019531 152.121094 399.914062 150.136719 399.609375 148.277344 C 398.984375 144.546875 397.601562 141.273438 396.074219 138.421875 C 395.308594 136.992188 394.488281 135.667969 393.636719 134.449219 C 392.789062 133.226562 391.933594 132.097656 391.058594 131.078125 C 390.636719 130.582031 390.214844 130.109375 389.792969 129.660156 C 390.363281 126.667969 390.929688 123.753906 391.5 120.96875 C 391.78125 119.574219 392.078125 118.269531 392.378906 116.898438 C 392.667969 115.550781 392.925781 114.246094 393.183594 112.980469 C 393.691406 110.449219 394.171875 108.082031 394.667969 105.914062 C 395.160156 103.757812 395.667969 101.78125 396.246094 100.171875 C 396.246094 100.171875 396.246094 100.167969 396.246094 100.167969 C 397.09375 100.097656 397.902344 100.003906 398.730469 99.917969 C 399.539062 99.828125 400.351562 99.738281 401.164062 99.636719 L 401.160156 99.636719 L 405.664062 99.128906 L 405.667969 99.125 C 405.773438 99.121094 405.882812 99.109375 405.984375 99.085938 L 406.636719 98.90625 L 407.265625 98.710938 C 407.683594 98.570312 408.101562 98.414062 408.519531 98.234375 C 409.355469 97.859375 410.203125 97.402344 410.980469 96.703125 C 411.558594 96.183594 412.09375 95.511719 412.429688 94.734375 C 412.777344 93.957031 412.902344 93.113281 412.871094 92.347656 Z M 409.722656 93.113281 C 409.613281 93.390625 409.507812 93.636719 409.351562 93.886719 C 409.199219 94.136719 408.988281 94.394531 408.703125 94.621094 C 408.375 94.886719 407.933594 95.070312 407.566406 95.378906 C 407.257812 95.648438 406.921875 95.882812 406.492188 95.992188 L 403.484375 96.382812 C 403.425781 96.386719 403.371094 96.390625 403.3125 96.398438 C 402.328125 96.539062 401.324219 96.671875 400.3125 96.800781 C 399.359375 96.917969 398.011719 97.066406 396.5 97.207031 C 396.316406 97.222656 396.109375 97.246094 395.9375 97.257812 C 395.761719 97.265625 395.585938 97.277344 395.40625 97.285156 C 395.054688 97.320312 394.675781 97.296875 394.304688 97.300781 C 393.558594 97.289062 392.789062 97.230469 392.039062 97.148438 C 389.027344 96.792969 386.339844 96.023438 385.796875 95.863281 C 383.972656 95.351562 382.175781 94.71875 380.394531 94.042969 C 380.230469 93.976562 378.835938 93.460938 376.582031 92.433594 C 374.339844 91.398438 371.21875 89.859375 367.761719 87.640625 C 366.042969 86.53125 364.222656 85.261719 362.484375 83.753906 C 361.605469 83.007812 360.761719 82.195312 359.976562 81.324219 C 359.199219 80.453125 358.472656 79.507812 357.96875 78.515625 C 357.460938 77.527344 357.214844 76.503906 357.398438 75.660156 C 357.445312 75.453125 357.515625 75.246094 357.613281 75.046875 C 357.640625 74.992188 357.660156 74.953125 357.695312 74.886719 L 357.808594 74.699219 C 357.882812 74.578125 357.953125 74.449219 358.035156 74.328125 C 358.355469 73.839844 358.71875 73.378906 359.128906 72.953125 C 360.773438 71.253906 363.148438 70.195312 365.679688 69.664062 C 368.222656 69.132812 370.914062 69.066406 373.550781 69.257812 C 376.195312 69.457031 378.800781 69.910156 381.292969 70.511719 C 386.28125 71.726562 390.8125 73.523438 394.527344 75.429688 C 398.25 77.335938 401.152344 79.375 403.035156 81.046875 C 404.933594 82.71875 405.828125 83.976562 406.011719 84.230469 C 406.390625 84.773438 407.710938 86.546875 408.707031 88.484375 C 409.199219 89.449219 409.617188 90.464844 409.769531 91.308594 C 409.953125 92.164062 409.855469 92.789062 409.722656 93.113281 Z M 392.949219 138.777344 C 393.222656 139.160156 393.453125 139.601562 393.605469 140.027344 C 393.703125 140.285156 393.863281 140.660156 394.070312 141.082031 C 394.277344 141.5 394.507812 141.972656 394.734375 142.429688 C 395.179688 143.351562 395.570312 144.222656 395.65625 144.492188 C 395.707031 144.65625 395.875 145.058594 396.046875 145.679688 C 396.234375 146.300781 396.46875 147.136719 396.65625 148.164062 C 396.867188 149.191406 397 150.410156 396.992188 151.761719 C 396.980469 153.113281 396.789062 154.601562 396.246094 156.066406 C 395.6875 157.542969 394.808594 159.066406 393.589844 160.347656 C 392.367188 161.640625 390.757812 162.664062 388.929688 163.402344 C 387.09375 164.121094 385.03125 164.523438 382.90625 164.695312 C 380.777344 164.871094 378.574219 164.785156 376.382812 164.558594 C 371.996094 164.097656 367.652344 163.03125 363.667969 161.78125 C 359.683594 160.527344 356.023438 159.058594 352.980469 157.6875 C 349.941406 156.292969 347.488281 154.914062 345.769531 153.890625 C 344.050781 152.863281 343.054688 152.199219 342.949219 152.136719 C 341.527344 151.257812 340.125 150.34375 338.777344 149.351562 C 337.054688 148.082031 335.414062 146.699219 333.84375 145.265625 C 333.460938 144.914062 333 144.628906 332.667969 144.246094 C 331.988281 143.449219 331.21875 142.785156 330.492188 142.054688 C 329.539062 141.09375 328.542969 140.078125 327.933594 138.925781 C 327.398438 137.921875 326.78125 137.039062 326.292969 136.085938 C 325.550781 134.648438 324.855469 133.183594 324.667969 131.648438 C 324.535156 130.605469 324.628906 129.574219 324.90625 128.609375 C 325.046875 128.128906 325.234375 127.664062 325.457031 127.210938 C 325.691406 126.761719 325.960938 126.328125 326.253906 125.898438 C 327.019531 124.832031 327.953125 123.875 328.976562 123.015625 C 329.78125 122.320312 330.679688 121.726562 331.582031 121.148438 C 332.507812 120.597656 333.445312 120.058594 334.421875 119.585938 C 337.542969 118.03125 340.910156 116.882812 344.355469 116.050781 C 345.675781 115.726562 347.011719 115.472656 348.351562 115.25 C 347.625 116.398438 346.449219 118.253906 344.628906 121.359375 L 344.617188 121.375 C 344.402344 121.746094 344.351562 122.210938 344.515625 122.644531 C 344.589844 122.835938 344.648438 122.988281 344.730469 123.171875 C 344.808594 123.351562 344.894531 123.546875 344.992188 123.753906 C 345.1875 124.171875 345.425781 124.636719 345.707031 125.15625 C 346.269531 126.1875 347.015625 127.410156 347.996094 128.730469 C 348.976562 130.050781 350.183594 131.476562 351.671875 132.871094 C 352.40625 133.578125 353.230469 134.25 354.101562 134.925781 C 354.984375 135.582031 355.925781 136.230469 356.941406 136.820312 C 358.960938 138.007812 361.25 138.996094 363.703125 139.703125 C 364.320312 139.863281 364.9375 140.050781 365.574219 140.171875 C 365.890625 140.238281 366.207031 140.304688 366.527344 140.375 C 366.835938 140.425781 367.148438 140.480469 367.464844 140.535156 C 368.089844 140.640625 368.71875 140.75 369.351562 140.859375 C 369.992188 140.945312 370.632812 141.035156 371.277344 141.121094 C 373.863281 141.449219 376.515625 141.667969 379.21875 141.59375 C 380.566406 141.574219 381.929688 141.441406 383.300781 141.203125 C 383.644531 141.136719 383.984375 141.085938 384.328125 140.988281 C 384.671875 140.902344 385.015625 140.820312 385.363281 140.699219 C 385.707031 140.597656 386.058594 140.453125 386.40625 140.308594 C 386.589844 140.21875 386.757812 140.144531 386.945312 140.039062 C 387.148438 139.921875 387.273438 139.871094 387.597656 139.617188 C 387.839844 139.425781 388.015625 139.144531 388.078125 138.816406 L 388.089844 138.761719 C 388.429688 136.910156 388.773438 135.074219 389.113281 133.261719 C 389.515625 133.753906 389.90625 134.261719 390.269531 134.785156 C 391.191406 136.105469 392.050781 137.445312 392.949219 138.777344 Z M 338.222656 201.214844 C 338.121094 201.417969 338.027344 201.617188 337.917969 201.828125 C 337.675781 202.261719 337.433594 202.703125 337.1875 203.152344 C 336.660156 204.050781 336.121094 204.976562 335.546875 205.917969 C 333.257812 209.6875 330.664062 213.71875 328.226562 217.492188 C 328.171875 217.582031 328.113281 217.667969 328.058594 217.753906 C 329.746094 212.367188 330.5625 209.753906 330.617188 209.582031 C 331.011719 208.199219 331.382812 206.808594 331.800781 205.429688 C 332.339844 203.679688 332.890625 201.867188 333.480469 200.234375 C 333.632812 199.820312 333.691406 199.355469 333.882812 198.964844 C 334.273438 198.15625 334.515625 197.304688 334.785156 196.449219 C 335.132812 195.324219 335.464844 194.140625 336.027344 193.132812 C 336.519531 192.253906 336.824219 191.335938 337.175781 190.433594 C 337.710938 189.058594 338.105469 187.628906 338.644531 186.257812 C 339.382812 184.378906 340.238281 182.550781 340.894531 180.636719 C 341.28125 179.511719 341.714844 178.394531 342.15625 177.289062 C 342.867188 175.527344 343.621094 173.785156 344.324219 172.023438 L 347.667969 163.503906 C 348.210938 162.140625 348.773438 160.78125 349.328125 159.421875 C 350.023438 159.769531 350.726562 160.109375 351.441406 160.4375 C 352.871094 161.089844 354.324219 161.691406 355.800781 162.273438 C 355.636719 162.695312 355.46875 163.117188 355.292969 163.53125 C 354.523438 165.355469 353.667969 167.144531 352.828125 168.9375 L 349.308594 176.441406 C 348.492188 178.199219 347.761719 179.996094 346.898438 181.726562 C 346.269531 182.988281 345.6875 184.253906 345.21875 185.574219 C 345.082031 185.960938 344.910156 186.359375 344.683594 186.691406 C 344.132812 187.488281 343.191406 190.210938 342.988281 190.660156 C 342.816406 191.046875 341.964844 192.941406 340.699219 195.753906 C 340.066406 197.160156 339.328125 198.792969 338.523438 200.582031 C 338.417969 200.816406 338.320312 201.015625 338.222656 201.214844 Z M 389.992188 114.234375 C 389.839844 114.972656 389.65625 115.84375 389.4375 116.816406 C 389.328125 117.308594 389.207031 117.832031 389.082031 118.382812 C 388.960938 118.9375 388.835938 119.519531 388.703125 120.128906 C 387.71875 124.804688 386.523438 130.941406 385.269531 137.511719 C 385.132812 137.574219 384.980469 137.636719 384.828125 137.695312 C 384.453125 137.832031 384.050781 137.949219 383.632812 138.046875 C 383.425781 138.101562 383.210938 138.144531 382.992188 138.179688 C 382.777344 138.21875 382.5625 138.265625 382.34375 138.296875 C 381.898438 138.34375 381.460938 138.421875 381.003906 138.449219 C 379.199219 138.601562 377.34375 138.585938 375.527344 138.449219 C 373.707031 138.335938 371.925781 138.097656 370.21875 137.847656 C 369.367188 137.71875 368.535156 137.554688 367.726562 137.417969 C 367.523438 137.378906 367.324219 137.34375 367.125 137.308594 C 366.933594 137.269531 366.746094 137.226562 366.558594 137.183594 C 366.183594 137.097656 365.808594 137.035156 365.453125 136.929688 C 362.578125 136.199219 360.292969 135.09375 358.734375 134.199219 C 357.175781 133.285156 356.320312 132.59375 356.230469 132.542969 C 355.179688 131.800781 354.164062 130.996094 353.238281 130.089844 C 352.050781 128.929688 351.003906 127.625 350.050781 126.265625 C 349.816406 125.9375 349.496094 125.648438 349.320312 125.292969 C 348.964844 124.550781 348.492188 123.910156 348.074219 123.214844 C 347.917969 122.957031 347.761719 122.691406 347.613281 122.425781 C 347.574219 122.351562 347.539062 122.277344 347.5 122.203125 C 347.628906 122.007812 347.765625 121.816406 347.914062 121.636719 C 348.519531 120.898438 348.941406 120.085938 349.421875 119.304688 C 350.152344 118.113281 350.757812 116.847656 351.511719 115.675781 C 352.542969 114.078125 353.699219 112.566406 354.742188 111.023438 C 355.050781 110.5625 355.378906 110.140625 355.714844 109.714844 C 356.085938 109.226562 356.484375 108.734375 356.804688 108.253906 C 357.882812 106.714844 358.886719 105.1875 359.8125 103.613281 C 361.296875 101.085938 362.683594 98.515625 364.0625 95.945312 L 366.082031 92.207031 L 366.054688 92.191406 C 366.128906 92.050781 366.210938 91.914062 366.277344 91.773438 C 366.453125 91.386719 366.523438 90.964844 366.53125 90.535156 C 366.84375 90.734375 367.15625 90.929688 367.472656 91.125 C 367.796875 91.316406 368.175781 91.425781 368.46875 91.648438 C 369.074219 92.105469 369.757812 92.402344 370.4375 92.707031 C 370.886719 92.910156 371.347656 93.113281 371.800781 93.316406 C 372.25 93.527344 372.679688 93.765625 373.070312 94.042969 C 373.75 94.542969 374.503906 94.835938 375.238281 95.175781 C 375.792969 95.433594 376.375 95.636719 376.949219 95.851562 C 377.53125 96.050781 378.109375 96.253906 378.679688 96.480469 C 380.234375 97.101562 381.777344 97.78125 383.414062 98.203125 C 384.375 98.460938 385.335938 98.714844 386.300781 98.972656 C 387.832031 99.382812 389.382812 99.769531 390.980469 99.992188 C 391.710938 100.085938 392.445312 100.164062 393.183594 100.210938 C 392.949219 100.941406 392.742188 101.664062 392.511719 102.382812 C 392.105469 103.695312 391.78125 105 391.597656 106.339844 C 391.546875 106.730469 391.464844 107.136719 391.3125 107.492188 C 390.945312 108.347656 390.636719 111.089844 390.542969 111.550781 C 390.492188 111.808594 390.296875 112.753906 389.992188 114.234375 Z M 389.992188 114.234375 " fill-opacity="1" fill-rule="nonzero"/></g><g fill="#febf21" fill-opacity="1"><g transform="translate(35.789478, 224.350834)"><g><path d="M 78.203125 1.941406 C 86.75 1.941406 95.035156 -0.386719 100.34375 -4.273438 L 96.332031 -18.902344 C 95.035156 -18.257812 93.222656 -17.480469 91.539062 -17.480469 C 88.949219 -17.480469 87.398438 -19.550781 86.621094 -22.011719 L 85.066406 -27.191406 C 83.511719 -32.238281 81.570312 -35.21875 76.910156 -36.640625 L 76.910156 -36.769531 C 89.078125 -41.304688 95.8125 -50.496094 95.8125 -62.277344 C 95.8125 -82.21875 82.089844 -93.222656 57.359375 -93.222656 L 6.472656 -93.222656 L 6.472656 0 L 40.136719 0 L 40.136719 -31.074219 L 45.1875 -31.074219 C 49.71875 -31.074219 51.660156 -27.449219 52.957031 -23.304688 L 55.285156 -15.539062 C 58.652344 -4.53125 67.199219 1.941406 78.203125 1.941406 Z M 40.136719 -51.789062 L 40.136719 -69.917969 L 51.660156 -69.917969 C 58.394531 -69.917969 62.148438 -66.679688 62.148438 -60.855469 C 62.148438 -55.027344 58.394531 -51.789062 51.660156 -51.789062 Z M 40.136719 -51.789062 "/></g></g></g><g fill="#febf21" fill-opacity="1"><g transform="translate(137.419507, 224.350834)"><g><path d="M 23.304688 1.292969 C 33.921875 1.292969 42.339844 -4.402344 46.09375 -12.042969 L 46.222656 -12.042969 L 46.613281 -10.359375 C 48.035156 -4.144531 56.582031 1.292969 66.421875 1.292969 C 73.542969 1.292969 81.699219 -0.257812 87.136719 -4.273438 L 83.125 -18.902344 C 81.699219 -17.738281 79.5 -16.960938 78.074219 -16.960938 C 75.875 -16.960938 74.707031 -18.773438 74.707031 -22.011719 L 74.707031 -40.136719 C 74.707031 -58.78125 61.5 -69.917969 39.230469 -69.917969 C 18.257812 -69.917969 5.179688 -59.949219 4.144531 -43.246094 L 33.664062 -40.914062 C 34.570312 -46.480469 36.902344 -49.847656 40.785156 -49.847656 C 43.503906 -49.847656 45.445312 -47.777344 45.445312 -44.410156 C 45.445312 -41.949219 43.375 -40.136719 40.527344 -39.878906 L 31.074219 -38.972656 C 12.6875 -37.289062 1.292969 -29.261719 1.292969 -16.832031 C 1.292969 -5.695312 10.488281 1.292969 23.304688 1.292969 Z M 36.902344 -17.089844 C 33.664062 -17.089844 31.203125 -18.902344 31.203125 -21.363281 C 31.203125 -23.953125 33.792969 -25.894531 40.007812 -26.414062 L 45.058594 -26.800781 L 45.058594 -26.15625 C 45.058594 -20.976562 41.691406 -17.089844 36.902344 -17.089844 Z M 36.902344 -17.089844 "/></g></g></g><g fill="#febf21" fill-opacity="1"><g transform="translate(224.549453, 224.350834)"><g><path d="M 27.835938 1.292969 C 37.679688 1.292969 44.929688 -3.753906 48.554688 -14.242188 L 48.683594 -14.242188 L 53.734375 0 L 78.332031 0 L 78.332031 -97.109375 L 48.554688 -97.109375 L 48.554688 -52.695312 L 48.425781 -52.695312 C 44.667969 -63.445312 37.417969 -68.621094 27.835938 -68.621094 C 12.300781 -68.621094 1.941406 -55.417969 1.941406 -33.664062 C 1.941406 -11.910156 12.300781 1.292969 27.835938 1.292969 Z M 40.785156 -23.304688 C 35.476562 -23.304688 31.722656 -27.707031 31.722656 -33.664062 C 31.722656 -39.621094 35.476562 -44.023438 40.785156 -44.023438 C 46.09375 -44.023438 49.847656 -39.621094 49.847656 -33.664062 C 49.847656 -27.707031 46.09375 -23.304688 40.785156 -23.304688 Z M 40.785156 -23.304688 "/></g></g></g><g fill="#161311" fill-opacity="1"><g transform="translate(35.789478, 338.485193)"><g><path d="M 6.472656 0 L 40.136719 0 L 40.136719 -24.988281 L 47.515625 -33.144531 L 60.851562 0 L 101.375 0 L 70.5625 -58.519531 L 101.375 -93.21875 L 60.851562 -93.21875 L 40.394531 -65.253906 L 40.136719 -65.382812 L 40.136719 -93.21875 L 6.472656 -93.21875 Z M 6.472656 0 "/></g></g></g><g fill="#161311" fill-opacity="1"><g transform="translate(137.162079, 338.485193)"><g><path d="M 23.304688 1.292969 C 33.015625 1.292969 41.300781 -4.660156 45.316406 -14.628906 L 45.445312 -14.628906 L 50.496094 0 L 75.09375 0 L 75.09375 -67.324219 L 45.316406 -67.324219 L 45.316406 -31.074219 C 45.316406 -26.152344 42.855469 -23.304688 38.839844 -23.304688 C 35.605469 -23.304688 33.664062 -25.507812 33.664062 -29.261719 L 33.664062 -67.324219 L 3.882812 -67.324219 L 3.882812 -18.125 C 3.882812 -5.957031 11.132812 1.292969 23.304688 1.292969 Z M 23.304688 1.292969 "/></g></g></g><g fill="#161311" fill-opacity="1"><g transform="translate(216.136909, 338.485193)"><g><path d="M 3.882812 0 L 33.664062 0 L 33.664062 -97.105469 L 3.882812 -97.105469 Z M 3.882812 0 "/></g></g></g><g fill="#161311" fill-opacity="1"><g transform="translate(253.682326, 338.485193)"><g><path d="M 38.972656 2.589844 C 60.074219 2.589844 74.574219 -9.96875 75.742188 -29.132812 L 48.550781 -32.367188 C 48.164062 -25.375 44.925781 -20.714844 40.265625 -20.714844 C 35.347656 -20.714844 31.851562 -25.894531 31.71875 -33.664062 C 31.589844 -41.429688 34.828125 -46.609375 39.617188 -46.609375 C 43.503906 -46.609375 46.867188 -43.503906 47 -35.605469 L 73.539062 -42.726562 C 71.210938 -59.167969 57.355469 -69.914062 38.582031 -69.914062 C 16.441406 -69.914062 1.941406 -55.542969 1.941406 -33.664062 C 1.941406 -11.78125 16.574219 2.589844 38.972656 2.589844 Z M 38.972656 2.589844 "/></g></g></g><g fill="#161311" fill-opacity="1"><g transform="translate(331.362476, 338.485193)"><g><path d="M 3.882812 0 L 33.664062 0 L 33.664062 -36.253906 C 33.664062 -41.171875 36.121094 -44.019531 40.136719 -44.019531 C 43.375 -44.019531 45.316406 -41.820312 45.316406 -38.066406 L 45.316406 0 L 75.09375 0 L 75.09375 -49.199219 C 75.09375 -61.371094 67.84375 -68.621094 55.671875 -68.621094 C 45.960938 -68.621094 37.804688 -62.664062 33.792969 -52.695312 L 33.664062 -52.695312 L 33.664062 -97.105469 L 3.882812 -97.105469 Z M 3.882812 0 "/></g></g></g></svg>