<svg xmlns="http://www.w3.org/2000/svg" xmlns:xlink="http://www.w3.org/1999/xlink" width="600" zoomAndPan="magnify" viewBox="0 0 450 449.999984" height="600" preserveAspectRatio="xMidYMid meet" version="1.0"><defs><g/></defs><g fill="#000000" fill-opacity="1"><g transform="translate(68.43937, 360.223473)"><g><path d="M 6.046875 -83.171875 L 30.140625 -83.171875 C 41.703125 -83.171875 51.582031 -79.222656 59.78125 -71.328125 C 67.976562 -63.429688 72.078125 -53.535156 72.078125 -41.640625 C 72.078125 -29.671875 67.992188 -19.738281 59.828125 -11.84375 C 51.660156 -3.945312 41.765625 0 30.140625 0 L 6.046875 0 Z M 25 -16.9375 L 27.921875 -16.9375 C 34.847656 -16.9375 40.507812 -19.269531 44.90625 -23.9375 C 49.3125 -28.613281 51.546875 -34.476562 51.609375 -41.53125 C 51.609375 -48.59375 49.40625 -54.472656 45 -59.171875 C 40.601562 -63.878906 34.910156 -66.234375 27.921875 -66.234375 L 25 -66.234375 Z M 25 -16.9375 "/></g></g></g><g fill="#000000" fill-opacity="1"><g transform="translate(147.882075, 360.223473)"><g><path d="M 48.296875 -83.171875 L 81.859375 0 L 61.5 0 L 55.34375 -16.640625 L 23.6875 -16.640625 L 17.546875 0 L -2.828125 0 L 30.75 -83.171875 Z M 48.890625 -33.265625 L 39.625 -57.46875 L 39.421875 -57.46875 L 30.140625 -33.265625 Z M 48.890625 -33.265625 "/></g></g></g><g fill="#000000" fill-opacity="1"><g transform="translate(231.96229, 360.223473)"><g><path d="M 36.703125 -84.6875 C 41.203125 -84.6875 45.601562 -84.03125 49.90625 -82.71875 C 54.207031 -81.40625 57.398438 -80.109375 59.484375 -78.828125 L 62.5 -76.8125 L 54.84375 -61.703125 C 54.238281 -62.097656 53.394531 -62.613281 52.3125 -63.25 C 51.238281 -63.894531 49.222656 -64.753906 46.265625 -65.828125 C 43.316406 -66.898438 40.5625 -67.4375 38 -67.4375 C 34.84375 -67.4375 32.40625 -66.765625 30.6875 -65.421875 C 28.976562 -64.078125 28.125 -62.265625 28.125 -59.984375 C 28.125 -58.835938 28.523438 -57.773438 29.328125 -56.796875 C 30.140625 -55.828125 31.519531 -54.785156 33.46875 -53.671875 C 35.414062 -52.566406 37.128906 -51.675781 38.609375 -51 C 40.085938 -50.332031 42.375 -49.328125 45.46875 -47.984375 C 50.84375 -45.703125 55.425781 -42.59375 59.21875 -38.65625 C 63.019531 -34.726562 64.921875 -30.273438 64.921875 -25.296875 C 64.921875 -20.523438 64.0625 -16.359375 62.34375 -12.796875 C 60.632812 -9.234375 58.285156 -6.441406 55.296875 -4.421875 C 52.304688 -2.410156 48.992188 -0.921875 45.359375 0.046875 C 41.734375 1.023438 37.804688 1.515625 33.578125 1.515625 C 29.941406 1.515625 26.375 1.144531 22.875 0.40625 C 19.382812 -0.332031 16.460938 -1.253906 14.109375 -2.359375 C 11.753906 -3.472656 9.632812 -4.566406 7.75 -5.640625 C 5.875 -6.722656 4.5 -7.632812 3.625 -8.375 L 2.3125 -9.46875 L 11.796875 -25.40625 C 12.597656 -24.726562 13.703125 -23.867188 15.109375 -22.828125 C 16.523438 -21.785156 19.03125 -20.390625 22.625 -18.640625 C 26.226562 -16.898438 29.40625 -16.03125 32.15625 -16.03125 C 40.15625 -16.03125 44.15625 -18.75 44.15625 -24.1875 C 44.15625 -25.332031 43.867188 -26.390625 43.296875 -27.359375 C 42.722656 -28.335938 41.710938 -29.3125 40.265625 -30.28125 C 38.828125 -31.257812 37.550781 -32.035156 36.4375 -32.609375 C 35.332031 -33.179688 33.519531 -34.054688 31 -35.234375 C 28.476562 -36.410156 26.613281 -37.300781 25.40625 -37.90625 C 20.363281 -40.394531 16.460938 -43.503906 13.703125 -47.234375 C 10.953125 -50.960938 9.578125 -54.976562 9.578125 -59.28125 C 9.578125 -66.738281 12.332031 -72.835938 17.84375 -77.578125 C 23.351562 -82.316406 29.640625 -84.6875 36.703125 -84.6875 Z M 36.703125 -84.6875 "/></g></g></g><g fill="#000000" fill-opacity="1"><g transform="translate(304.751172, 360.223473)"><g><path d="M 25 -33.375 L 25 0 L 6.046875 0 L 6.046875 -83.171875 L 25 -83.171875 L 25 -50 L 51.8125 -50 L 51.8125 -83.171875 L 70.765625 -83.171875 L 70.765625 0 L 51.8125 0 L 51.8125 -33.375 Z M 25 -33.375 "/></g></g></g><g fill="#000000" fill-opacity="1"><g transform="translate(94.592286, 177.146112)"><g><path d="M 36.949219 15.394531 C 37.675781 15.578125 38.035156 15.9375 38.761719 15.9375 C 38.941406 15.9375 39.304688 15.394531 39.847656 14.851562 C 40.570312 14.308594 40.210938 15.757812 41.117188 15.214844 C 43.46875 13.039062 46.1875 13.585938 48.542969 11.410156 C 48.902344 11.230469 49.445312 11.230469 49.992188 11.230469 C 50.535156 11.046875 51.441406 10.867188 52.34375 10.867188 C 53.433594 9.601562 55.0625 8.511719 55.242188 7.425781 C 56.148438 5.070312 57.597656 2.71875 57.054688 0.179688 C 57.054688 -0.179688 57.234375 -0.722656 57.234375 -1.269531 C 57.960938 -3.984375 59.226562 -7.0625 58.140625 -9.601562 C 57.960938 -9.78125 58.320312 -10.324219 58.320312 -10.6875 C 58.683594 -11.230469 59.226562 -11.59375 59.226562 -11.953125 C 60.316406 -15.578125 61.039062 -19.199219 61.761719 -22.820312 C 62.851562 -26.625 63.03125 -30.609375 64.300781 -34.59375 C 65.203125 -36.949219 65.566406 -39.304688 66.109375 -41.660156 C 66.652344 -44.917969 67.199219 -48.179688 68.644531 -51.441406 C 69.371094 -53.613281 70.820312 -55.242188 73.355469 -55.96875 C 76.433594 -57.054688 79.695312 -57.960938 82.59375 -58.867188 C 86.941406 -60.675781 91.285156 -61.945312 95.632812 -63.210938 C 94.726562 -63.394531 94.003906 -63.757812 93.28125 -63.757812 C 94.003906 -64.84375 94.910156 -65.023438 95.632812 -65.203125 C 96.359375 -65.386719 97.265625 -65.929688 98.53125 -66.292969 L 95.089844 -66.652344 C 95.816406 -68.644531 97.265625 -68.464844 98.53125 -68.828125 L 95.453125 -70.820312 C 97.445312 -71 99.074219 -69.734375 101.609375 -71.726562 C 99.257812 -71.726562 97.082031 -71.726562 98.351562 -74.625 C 98.894531 -74.625 99.257812 -74.804688 99.617188 -74.984375 C 98.894531 -77.339844 96.902344 -78.96875 94.546875 -79.875 C 94.910156 -79.152344 95.816406 -78.425781 96.359375 -77.703125 L 95.996094 -77.339844 L 94.726562 -77.339844 C 94.367188 -75.890625 93.824219 -74.804688 94.003906 -73.898438 C 94.367188 -72.992188 94.910156 -72.269531 95.453125 -71.363281 C 93.824219 -71.363281 92.554688 -71.363281 91.105469 -71.183594 C 89.839844 -70.820312 87.84375 -70.640625 86.941406 -70.820312 C 84.765625 -71.183594 82.59375 -70.640625 80.417969 -70.457031 C 79.875 -70.09375 78.96875 -69.914062 78.425781 -69.914062 C 77.339844 -69.914062 75.890625 -70.09375 74.984375 -70.09375 C 75.527344 -72.269531 76.433594 -74.082031 78.425781 -75.167969 C 79.875 -75.890625 81.144531 -76.433594 82.957031 -76.796875 C 86.035156 -77.523438 89.839844 -78.425781 93.28125 -78.96875 C 92.917969 -80.058594 91.832031 -79.875 90.925781 -79.695312 C 86.214844 -78.609375 76.976562 -75.890625 79.875 -83.859375 C 82.230469 -90.742188 84.765625 -97.808594 88.390625 -104.691406 C 89.839844 -106.683594 90.019531 -108.855469 90.925781 -111.03125 C 91.648438 -114.472656 90.199219 -116.644531 87.484375 -118.09375 C 84.585938 -119.722656 81.144531 -120.628906 77.339844 -120.628906 L 69.914062 -120.628906 C 68.101562 -117.1875 66.109375 -113.925781 64.300781 -110.667969 C 63.757812 -109.21875 62.851562 -107.40625 62.851562 -106.140625 C 62.667969 -104.328125 62.125 -102.878906 61.402344 -101.429688 C 60.316406 -99.257812 58.683594 -97.265625 58.683594 -94.910156 C 58.683594 -93.460938 57.597656 -91.648438 57.234375 -90.199219 C 55.0625 -84.765625 53.613281 -81.6875 51.984375 -76.433594 C 51.800781 -75.710938 51.257812 -75.347656 50.894531 -74.441406 C 37.3125 -69.371094 26.082031 -68.285156 36.585938 -85.308594 L 39.847656 -93.460938 C 40.570312 -95.996094 42.019531 -98.53125 43.109375 -101.429688 C 43.652344 -103.058594 43.46875 -104.148438 41.660156 -104.691406 L 37.675781 -105.234375 C 36.40625 -105.414062 35.5 -105.050781 34.777344 -103.785156 C 32.058594 -98.714844 28.980469 -93.640625 26.804688 -88.75 C 23.363281 -81.144531 21.011719 -76.976562 18.835938 -69.371094 C 18.476562 -67.199219 16.121094 -63.9375 13.765625 -63.394531 C 10.144531 -62.851562 7.425781 -61.582031 4.890625 -62.667969 L 1.269531 -55.0625 C 1.8125 -54.519531 1.8125 -53.433594 1.449219 -51.984375 C 0.90625 -49.992188 0.90625 -48 0.363281 -45.824219 C 0 -44.738281 0.363281 -43.46875 0.542969 -42.382812 C 1.085938 -35.5 9.054688 -40.933594 5.796875 -32.601562 C 3.261719 -24.089844 0.90625 -15.394531 -0.722656 -7.0625 C -1.085938 -5.070312 -1.085938 -3.261719 -0.90625 -1.449219 C -0.722656 -0.179688 0.363281 0.90625 2.355469 0.542969 C 2.898438 0.179688 3.621094 0.542969 4.347656 0.542969 C 8.875 0.722656 8.332031 0.90625 11.773438 -3.441406 C 11.953125 -3.804688 11.953125 -3.984375 12.316406 -4.164062 C 15.9375 -10.324219 16.300781 -16.300781 18.476562 -22.277344 C 18.835938 -23.183594 18.65625 -23.910156 18.835938 -24.632812 C 19.199219 -26.445312 19.5625 -28.074219 19.742188 -29.886719 C 23.363281 -42.5625 22.277344 -41.660156 35.5 -47.816406 C 36.40625 -48 37.492188 -48.359375 38.21875 -48.902344 C 51.078125 -52.527344 36.226562 -28.800781 37.855469 -21.917969 C 36.769531 -18.113281 36.226562 -14.128906 35.136719 -10.144531 C 34.777344 -9.238281 34.777344 -8.332031 34.234375 -7.425781 C 33.328125 -6.160156 32.964844 -5.253906 33.507812 -4.527344 C 33.6875 -4.164062 33.328125 -3.621094 33.144531 -3.261719 C 33.144531 -2.535156 32.601562 -1.628906 32.601562 -1.269531 C 33.144531 1.085938 32.964844 3.261719 32.058594 5.613281 L 32.058594 7.605469 C 31.878906 9.238281 32.058594 11.046875 31.878906 12.679688 C 31.695312 13.222656 31.152344 13.585938 30.792969 14.308594 C 31.152344 14.851562 32.058594 15.578125 32.242188 16.121094 C 32.964844 17.75 33.144531 17.929688 35.5 16.84375 Z M 13.765625 -54.699219 C 11.953125 -54.15625 10.324219 -53.792969 8.152344 -53.433594 C 9.601562 -55.242188 11.230469 -55.242188 12.859375 -55.96875 C 12.496094 -56.875 12.316406 -57.417969 11.230469 -57.597656 C 10.144531 -57.597656 9.054688 -57.960938 8.152344 -57.960938 C 9.054688 -60.316406 9.601562 -61.039062 11.773438 -61.582031 C 13.585938 -61.761719 14.851562 -61.945312 16.84375 -62.488281 Z M 48.179688 -62.851562 C 42.746094 -61.402344 38.21875 -60.675781 33.6875 -60.496094 C 34.777344 -61.402344 35.863281 -61.761719 37.128906 -61.761719 C 38.578125 -61.761719 39.847656 -62.125 41.117188 -62.667969 C 43.46875 -63.394531 45.460938 -63.9375 47.273438 -63.757812 Z M 33.144531 -66.652344 C 35.320312 -67.378906 37.675781 -67.742188 39.847656 -68.464844 L 32.242188 -65.023438 C 32.058594 -64.84375 31.695312 -65.023438 31.152344 -65.023438 C 31.152344 -66.109375 32.058594 -66.472656 33.144531 -66.652344 Z M 42.5625 -59.953125 C 44.738281 -61.945312 45.824219 -61.039062 47.09375 -60.859375 C 45.644531 -59.589844 44.558594 -60.316406 42.5625 -59.953125 Z M 32.242188 -61.945312 C 33.328125 -62.488281 34.414062 -62.851562 35.5 -63.03125 C 34.59375 -61.761719 33.328125 -61.582031 32.242188 -61.945312 Z M 43.832031 -68.828125 C 42.746094 -68.828125 41.839844 -68.828125 40.753906 -68.644531 C 41.839844 -69.007812 42.925781 -69.371094 44.195312 -69.550781 C 44.195312 -69.371094 43.832031 -69.007812 43.832031 -68.828125 Z M 99.800781 -74.804688 L 99.800781 -75.167969 L 99.617188 -74.984375 Z M 99.800781 -74.804688 "/></g></g></g><g fill="#000000" fill-opacity="1"><g transform="translate(185.879247, 177.146112)"><g><path d="M 5.070312 -46.367188 C 4.890625 -45.824219 4.890625 -45.460938 4.347656 -45.28125 C 1.628906 -42.019531 -0.722656 -38.578125 -2.355469 -34.59375 C -3.984375 -31.335938 -5.070312 -28.074219 -5.433594 -24.632812 C -5.796875 -21.191406 -5.613281 -17.929688 -5.253906 -14.671875 L -3.621094 -9.78125 C -1.8125 -6.703125 0.363281 -4.347656 3.621094 -3.984375 C 5.976562 -3.621094 8.511719 -3.441406 11.046875 -4.164062 C 11.59375 -4.527344 12.496094 -4.890625 12.859375 -4.890625 C 14.851562 -5.433594 16.480469 -6.703125 17.929688 -8.332031 C 18.113281 -8.875 18.65625 -9.238281 19.019531 -9.417969 L 20.285156 -10.324219 C 21.371094 -11.046875 22.097656 -12.316406 22.820312 -13.402344 C 24.089844 -15.035156 25.359375 -16.664062 26.261719 -18.835938 C 27.53125 -21.917969 29.160156 -24.8125 29.703125 -27.894531 C 29.886719 -28.253906 30.066406 -28.4375 30.066406 -28.800781 C 30.066406 -29.160156 30.609375 -29.34375 31.152344 -29.34375 L 31.695312 -29.34375 C 38.21875 -29.34375 54.882812 -29.160156 60.316406 -34.957031 C 61.039062 -35.679688 59.226562 -36.042969 59.769531 -36.949219 C 59.953125 -37.3125 60.132812 -38.035156 59.769531 -38.578125 L 58.503906 -37.855469 L 55.605469 -36.40625 C 46.910156 -34.957031 43.46875 -36.226562 34.59375 -35.679688 C 33.144531 -35.679688 32.058594 -36.949219 32.601562 -38.035156 C 33.144531 -40.027344 32.601562 -42.019531 32.785156 -44.195312 C 32.785156 -44.375 32.601562 -45.824219 32.601562 -46.550781 C 32.242188 -48 32.242188 -49.265625 32.058594 -50.894531 C 31.695312 -52.707031 31.515625 -54.519531 30.972656 -56.148438 C 30.246094 -57.417969 29.886719 -58.683594 29.34375 -60.132812 C 28.4375 -62.488281 27.351562 -64.117188 25.71875 -65.566406 C 24.453125 -66.292969 23.363281 -67.378906 22.277344 -68.285156 C 21.371094 -69.007812 17.386719 -72.632812 15.9375 -72.632812 C 13.945312 -72.992188 11.773438 -72.8125 10.144531 -71.726562 C 7.96875 -70.457031 6.160156 -69.371094 4.710938 -68.101562 C 3.984375 -67.921875 3.621094 -67.558594 3.441406 -67.199219 C 1.8125 -64.300781 0.90625 -61.402344 1.449219 -58.320312 C 1.992188 -54.15625 2.898438 -50.171875 4.890625 -46.910156 C 5.070312 -46.730469 5.070312 -46.550781 5.070312 -46.367188 Z M 26.625 -49.808594 C 28.800781 -37.675781 19.199219 -34.050781 13.945312 -44.375 C 9.417969 -49.265625 4.710938 -58.683594 9.601562 -65.566406 C 10.867188 -66.835938 14.851562 -70.640625 17.027344 -68.828125 C 18.292969 -68.101562 19.199219 -67.378906 20.285156 -66.472656 C 21.371094 -65.929688 21.917969 -65.023438 22.640625 -64.300781 C 23.910156 -63.210938 24.632812 -61.761719 25.175781 -59.953125 C 25.71875 -57.960938 26.082031 -56.328125 26.445312 -54.15625 C 26.988281 -52.886719 26.988281 -51.257812 26.625 -49.808594 Z M 13.765625 -26.625 C 16.121094 -29.703125 18.113281 -31.335938 22.277344 -29.523438 C 21.734375 -28.253906 21.371094 -26.625 20.46875 -25.175781 C 18.65625 -21.011719 16.480469 -16.84375 13.402344 -13.585938 L 12.679688 -13.039062 C 12.496094 -12.859375 12.496094 -12.859375 12.316406 -12.859375 C 11.410156 -13.222656 10.6875 -14.128906 10.324219 -15.035156 C 10.144531 -15.394531 9.78125 -15.578125 10.144531 -15.9375 C 10.144531 -16.84375 10.144531 -17.929688 10.324219 -18.835938 C 11.410156 -22.097656 11.773438 -23.726562 13.765625 -26.625 Z M 32.601562 -46.550781 L 32.601562 -46.367188 C 32.421875 -47.09375 32.421875 -46.910156 32.601562 -46.550781 Z M 32.785156 -46.1875 C 32.785156 -46.1875 32.601562 -46.1875 32.601562 -46.367188 C 32.601562 -46.1875 32.785156 -46.1875 32.785156 -46.1875 Z M 32.785156 -46.1875 "/></g></g></g><g fill="#000000" fill-opacity="1"><g transform="translate(242.752465, 177.146112)"><g><path d="M 48.722656 -34.050781 C 47.09375 -31.152344 46.1875 -27.167969 44.558594 -24.089844 C 42.746094 -20.46875 36.585938 -13.765625 33.871094 -11.046875 C 32.785156 -10.144531 27.351562 -5.796875 26.261719 -5.070312 C 24.632812 -3.984375 21.371094 -4.164062 19.742188 -4.164062 C 19.378906 -4.164062 19.199219 -4.347656 19.019531 -4.347656 C 18.476562 -5.070312 17.75 -5.613281 17.386719 -6.519531 C 16.480469 -9.238281 15.757812 -11.953125 15.578125 -14.851562 C 15.214844 -21.734375 17.570312 -35.5 19.5625 -40.027344 C 20.46875 -41.296875 20.285156 -42.925781 21.011719 -44.195312 C 21.917969 -45.644531 22.820312 -47.273438 23.363281 -48.902344 C 23.910156 -50.894531 24.632812 -52.527344 25.539062 -54.335938 L 26.445312 -56.328125 C 28.800781 -62.308594 31.695312 -68.101562 33.871094 -74.261719 L 34.234375 -74.804688 C 34.59375 -75.527344 34.957031 -76.074219 35.679688 -76.253906 L 39.847656 -76.796875 C 40.570312 -76.976562 41.476562 -76.976562 42.203125 -77.339844 C 43.46875 -77.703125 44.738281 -77.882812 46.003906 -77.882812 C 48.179688 -77.703125 50.351562 -78.609375 52.34375 -78.789062 C 52.34375 -78.789062 52.527344 -78.789062 52.527344 -78.96875 L 56.511719 -80.78125 L 57.777344 -81.6875 L 58.503906 -82.773438 C 57.234375 -82.957031 56.148438 -83.316406 55.0625 -83.316406 L 45.644531 -83.316406 L 38.941406 -82.773438 C 38.21875 -82.773438 37.675781 -82.773438 37.128906 -83.136719 C 37.3125 -83.679688 37.3125 -84.042969 37.3125 -84.585938 L 38.398438 -88.933594 L 38.941406 -91.832031 C 39.121094 -92.734375 39.121094 -93.640625 38.941406 -94.367188 C 38.761719 -95.273438 38.578125 -96.175781 38.578125 -97.265625 C 38.578125 -99.4375 38.21875 -101.25 37.3125 -103.058594 C 36.585938 -105.050781 35.679688 -106.140625 33.144531 -105.597656 C 32.964844 -105.414062 32.964844 -105.414062 32.785156 -105.414062 C 31.515625 -105.414062 30.429688 -104.871094 29.34375 -105.234375 C 28.4375 -105.414062 27.710938 -105.050781 26.988281 -104.507812 L 25.71875 -103.058594 C 23.363281 -100.886719 21.554688 -98.351562 19.742188 -95.453125 C 17.75 -92.191406 16.480469 -88.570312 14.671875 -85.128906 C 14.308594 -83.5 13.402344 -82.230469 12.859375 -80.78125 C 12.496094 -79.875 11.773438 -79.515625 11.046875 -79.332031 C 9.238281 -79.152344 7.425781 -78.96875 5.796875 -78.609375 L -1.628906 -76.976562 C -1.8125 -76.976562 -2.171875 -76.796875 -2.535156 -76.617188 C -2.355469 -75.710938 -1.8125 -75.347656 -1.449219 -74.984375 L 1.8125 -72.992188 C 2.898438 -72.085938 3.984375 -72.269531 5.253906 -72.085938 C 9.601562 -71.183594 4.890625 -64.300781 3.984375 -60.316406 L 2.355469 -54.519531 C 1.992188 -53.433594 1.449219 -52.164062 1.269531 -50.894531 L 0.363281 -47.273438 C -3.984375 -32.601562 -5.796875 -30.429688 -5.796875 -15.214844 C -5.613281 -12.496094 -5.070312 -8.695312 -4.347656 -6.339844 C -3.804688 -4.527344 -2.71875 -3.078125 -1.8125 -1.449219 C 0 2.171875 5.613281 7.789062 9.417969 8.332031 C 11.59375 8.875 14.128906 8.695312 16.480469 8.511719 C 17.75 8.332031 23.183594 6.339844 24.632812 5.433594 C 26.804688 3.984375 30.792969 -0.722656 33.144531 -2.355469 C 34.050781 -3.078125 42.5625 -13.945312 43.289062 -15.214844 L 48.179688 -24.453125 L 51.621094 -33.144531 C 51.984375 -33.871094 53.976562 -39.121094 53.792969 -39.847656 C 53.613281 -40.753906 54.15625 -40.753906 54.15625 -41.839844 C 54.335938 -42.382812 53.070312 -41.660156 52.164062 -41.839844 Z M 30.609375 -83.859375 C 29.523438 -80.601562 24.453125 -80.78125 25.175781 -85.492188 C 25.71875 -87.484375 26.082031 -89.476562 26.445312 -91.285156 L 27.53125 -93.640625 L 28.253906 -95.273438 C 28.617188 -96.902344 29.34375 -98.53125 30.066406 -99.980469 C 30.429688 -100.886719 30.972656 -101.25 31.695312 -101.792969 C 32.058594 -102.15625 32.601562 -101.972656 32.785156 -101.25 C 32.964844 -99.617188 33.144531 -97.988281 32.964844 -96.359375 L 32.242188 -92.011719 L 31.695312 -89.476562 Z M 22.460938 -60.132812 C 19.921875 -53.433594 14.128906 -42.203125 18.113281 -57.234375 C 19.742188 -62.851562 20.46875 -67.015625 22.460938 -72.992188 C 28.4375 -76.796875 27.894531 -73.175781 26.082031 -68.644531 C 24.453125 -65.386719 23.726562 -63.574219 22.460938 -60.132812 Z M 22.460938 -60.132812 "/></g></g></g><g fill="#000000" fill-opacity="1"><g transform="translate(293.64856, 177.146112)"><g><path d="M 14.851562 -10.6875 C 15.035156 -10.6875 15.214844 -10.867188 15.394531 -10.867188 L 15.035156 -14.671875 C 15.035156 -15.9375 15.214844 -16.664062 16.300781 -17.207031 C 17.386719 -18.113281 18.113281 -19.199219 18.476562 -20.828125 C 18.65625 -21.554688 18.835938 -22.277344 19.199219 -22.820312 L 19.742188 -24.632812 C 20.105469 -27.351562 20.828125 -30.066406 21.011719 -32.964844 C 21.371094 -37.855469 23.726562 -42.203125 24.453125 -46.910156 C 25.902344 -48.902344 26.625 -51.078125 27.167969 -53.613281 C 27.167969 -53.613281 27.351562 -53.976562 27.351562 -54.15625 L 29.703125 -58.683594 C 30.792969 -61.21875 32.058594 -63.574219 33.144531 -65.929688 C 33.6875 -66.472656 33.871094 -67.378906 34.414062 -67.742188 C 35.5 -68.644531 35.863281 -70.09375 36.226562 -71.542969 C 36.585938 -72.085938 36.949219 -72.8125 37.128906 -73.535156 L 40.027344 -78.789062 C 41.476562 -82.773438 42.925781 -86.941406 44.738281 -90.742188 C 46.730469 -94.726562 47.453125 -99.074219 48.902344 -103.242188 C 49.445312 -104.691406 49.085938 -106.140625 48 -107.589844 C 46.367188 -109.761719 44.375 -111.210938 42.203125 -112.480469 C 40.753906 -113.203125 39.484375 -114.109375 38.035156 -114.289062 C 35.863281 -114.472656 33.507812 -115.015625 30.972656 -115.195312 C 30.246094 -115.195312 29.523438 -114.832031 29.160156 -113.925781 L 23.546875 -97.265625 C 22.277344 -93.28125 21.554688 -89.292969 20.285156 -85.308594 L 13.039062 -58.320312 L 13.039062 -53.25 C 13.039062 -49.992188 11.773438 -46.910156 11.773438 -43.652344 L 11.046875 -35.679688 C 10.867188 -28.074219 12.136719 -20.648438 13.765625 -13.402344 C 13.945312 -12.496094 14.488281 -11.773438 14.851562 -10.6875 Z M 13.585938 9.601562 C 13.945312 11.230469 14.488281 11.230469 15.757812 10.503906 C 15.9375 10.324219 16.480469 9.960938 16.664062 9.960938 C 19.199219 9.238281 21.371094 7.789062 23.003906 5.433594 C 24.632812 2.535156 25.902344 -0.179688 25.175781 -3.804688 C 24.632812 -5.613281 24.089844 -6.519531 22.460938 -6.703125 C 21.734375 -6.703125 21.011719 -7.0625 19.921875 -7.0625 C 19.019531 -7.0625 17.75 -6.519531 16.664062 -7.246094 C 16.480469 -7.425781 15.578125 -7.246094 15.214844 -7.0625 C 13.945312 -6.519531 13.402344 -5.433594 13.222656 -3.984375 C 13.039062 -1.628906 12.679688 0.722656 12.316406 3.621094 Z M 13.585938 9.601562 "/></g></g></g></svg>