<svg xmlns="http://www.w3.org/2000/svg" xmlns:xlink="http://www.w3.org/1999/xlink" width="500" zoomAndPan="magnify" viewBox="0 0 375 374.999991" height="500" preserveAspectRatio="xMidYMid meet" version="1.0"><defs><g/></defs><g fill="#000000" fill-opacity="1"><g transform="translate(33.638238, 223.50438)"><g><path d="M 85.824219 -77.617188 C 85.824219 -91.007812 89.136719 -99.792969 91.296875 -99.792969 L 91.296875 -101.089844 L 79.054688 -101.089844 L 79.054688 -99.792969 C 81.214844 -99.792969 84.527344 -91.007812 84.527344 -77.617188 L 84.527344 -15.839844 L 17.425781 -101.089844 L 4.320312 -101.089844 L 13.824219 -88.992188 L 13.824219 -23.617188 C 13.824219 -10.222656 10.511719 -1.296875 8.351562 -1.296875 L 8.351562 0 L 20.59375 0 L 20.59375 -1.296875 C 18.433594 -1.296875 15.121094 -10.222656 15.121094 -23.617188 L 15.121094 -87.40625 L 83.953125 0 L 97.054688 0 L 85.824219 -14.257812 Z M 85.824219 -77.617188 "/></g></g></g><g fill="#000000" fill-opacity="1"><g transform="translate(135.014185, 223.50438)"><g><path d="M 67.390625 -15.40625 C 69.984375 -7.34375 70.128906 -1.296875 69.121094 -1.296875 L 69.121094 0 L 85.96875 0 L 85.96875 -1.296875 C 83.808594 -1.296875 80.207031 -10.078125 76.464844 -20.878906 L 48.960938 -101.089844 L 38.015625 -101.089844 L 40.753906 -93.167969 L 15.121094 -18.144531 C 10.65625 -5.183594 6.480469 -1.296875 4.320312 -1.296875 L 4.320312 0 L 16.558594 0 L 16.558594 -1.296875 C 12.816406 -1.296875 12.527344 -6.769531 16.414062 -17.710938 L 23.472656 -38.734375 C 25.488281 -44.351562 32.6875 -45.648438 37.871094 -45.214844 C 51.984375 -43.777344 61.921875 -31.535156 66.238281 -18.863281 Z M 41.472656 -91.152344 L 62.640625 -29.519531 C 57.167969 -38.304688 48.671875 -45.359375 37.871094 -46.367188 C 33.695312 -46.800781 28.367188 -46.078125 25.054688 -43.054688 Z M 41.472656 -91.152344 "/></g></g></g><g fill="#000000" fill-opacity="1"><g transform="translate(225.302136, 223.50438)"><g><path d="M 73.871094 -99.792969 C 77.617188 -99.792969 77.761719 -94.320312 74.015625 -83.375 L 48.960938 -9.9375 L 22.894531 -85.824219 C 20.449219 -93.742188 20.160156 -99.792969 21.3125 -99.792969 L 21.3125 -101.089844 L 4.320312 -101.089844 L 4.320312 -99.792969 C 6.625 -99.792969 10.222656 -91.152344 13.96875 -80.207031 L 41.472656 0 L 52.273438 0 L 49.535156 -8.0625 L 75.3125 -83.089844 C 79.632812 -96.046875 83.953125 -99.792969 86.113281 -99.792969 L 86.113281 -101.089844 L 73.871094 -101.089844 Z M 73.871094 -99.792969 "/></g></g></g><g fill="#000000" fill-opacity="1"><g transform="translate(315.734076, 223.50438)"><g><path d="M 21.3125 -101.089844 L 4.320312 -101.089844 L 4.320312 -99.792969 C 5.183594 -99.792969 7.632812 -98.207031 7.632812 -88.703125 L 7.632812 -12.382812 C 7.632812 -3.023438 5.183594 -1.296875 4.320312 -1.296875 L 4.320312 0 L 21.3125 0 L 21.3125 -1.296875 C 20.304688 -1.296875 17.855469 -3.023438 17.855469 -12.382812 L 17.855469 -88.703125 C 17.855469 -98.207031 20.304688 -99.792969 21.3125 -99.792969 Z M 21.3125 -101.089844 "/></g></g></g></svg>