<svg xmlns="http://www.w3.org/2000/svg" xmlns:xlink="http://www.w3.org/1999/xlink" width="500" zoomAndPan="magnify" viewBox="0 0 375 374.999991" height="500" preserveAspectRatio="xMidYMid meet" version="1.0"><defs><g/></defs><g fill="#000000" fill-opacity="1"><g transform="translate(109.170416, 129.772665)"><g><path d="M 90.125 5.859375 C 93.9375 5.140625 97.601562 5.925781 101.125 8.21875 C 104.65625 10.507812 106.769531 13.5 107.46875 17.1875 C 108.019531 20.113281 107.507812 22.644531 105.9375 24.78125 C 104.375 26.914062 102.195312 28.25 99.40625 28.78125 C 95.59375 29.5 91.945312 28.671875 88.46875 26.296875 C 84.988281 23.929688 82.90625 20.90625 82.21875 17.21875 C 81.6875 14.425781 82.171875 11.96875 83.671875 9.84375 C 85.171875 7.71875 87.320312 6.390625 90.125 5.859375 Z M 7.625 1.734375 C 11.445312 1.003906 15.117188 1.785156 18.640625 4.078125 C 22.160156 6.367188 24.265625 9.359375 24.953125 13.046875 C 25.515625 15.972656 25.007812 18.503906 23.4375 20.640625 C 21.875 22.773438 19.695312 24.109375 16.90625 24.640625 C 13.082031 25.359375 9.429688 24.53125 5.953125 22.15625 C 2.484375 19.78125 0.398438 16.753906 -0.296875 13.078125 C -0.828125 10.273438 -0.335938 7.8125 1.171875 5.6875 C 2.679688 3.570312 4.832031 2.253906 7.625 1.734375 Z M 7.625 1.734375 "/></g></g></g><g fill="#000000" fill-opacity="1"><g transform="translate(119.184495, 182.747534)"><g><path d="M 159.46875 2.03125 C 149.40625 14.988281 138.976562 25.28125 128.1875 32.90625 C 117.394531 40.539062 104.117188 45.847656 88.359375 48.828125 C 74.648438 51.421875 60.226562 50.460938 45.09375 45.953125 C 29.96875 41.441406 15.253906 34.085938 0.953125 23.890625 C -13.335938 13.703125 -26.429688 1.507812 -38.328125 -12.6875 L -36.203125 -15.0625 C -16.984375 4.46875 2.753906 18.566406 23.015625 27.234375 C 43.273438 35.898438 64.835938 38.070312 87.703125 33.75 C 116.410156 28.320312 139.289062 16.765625 156.34375 -0.921875 Z M 159.46875 2.03125 "/></g></g></g></svg>